Atithi-Light.ufo
<glyph name="quotedbl" format="1">
  <advance width="294"/>
  <unicode hex="0022"/>
  <note>
	quotedbl
  </note>
  <outline>
    <contour>
      <point x="198" y="347" type="line"/>
      <point x="204" y="442" type="line" smooth="yes"/>
      <point x="205" y="454"/>
      <point x="204" y="468"/>
      <point x="202" y="482" type="curve"/>
      <point x="183" y="482" type="line"/>
      <point x="181" y="468"/>
      <point x="180" y="454"/>
      <point x="181" y="442" type="curve" smooth="yes"/>
      <point x="187" y="347" type="line"/>
    </contour>
    <contour>
      <point x="107" y="347" type="line"/>
      <point x="113" y="442" type="line" smooth="yes"/>
      <point x="114" y="454"/>
      <point x="114" y="468"/>
      <point x="112" y="482" type="curve"/>
      <point x="92" y="482" type="line"/>
      <point x="90" y="468"/>
      <point x="90" y="454"/>
      <point x="91" y="442" type="curve" smooth="yes"/>
      <point x="96" y="347" type="line"/>
    </contour>
  </outline>
</glyph>
<glyph name="quotesingle" format="1">
  <advance width="204"/>
  <unicode hex="0027"/>
  <note>
	quotesingle
  </note>
  <outline>
    <contour>
      <point x="107" y="327" type="line"/>
      <point x="113" y="422" type="line" smooth="yes"/>
      <point x="114" y="434"/>
      <point x="114" y="448"/>
      <point x="112" y="462" type="curve"/>
      <point x="92" y="462" type="line"/>
      <point x="90" y="448"/>
      <point x="90" y="434"/>
      <point x="91" y="422" type="curve" smooth="yes"/>
      <point x="97" y="327" type="line"/>
    </contour>
  </outline>
</glyph>
<glyph name="parenright" format="1">
  <advance width="256"/>
  <unicode hex="0029"/>
  <note>
	parenright
  </note>
  <outline>
    <contour>
      <point x="149" y="-61"/>
      <point x="168" y="-46"/>
      <point x="173" y="-25" type="curve"/>
      <point x="173" y="467" type="line"/>
      <point x="168" y="489"/>
      <point x="149" y="503"/>
      <point x="123" y="513" type="curve"/>
      <point x="108" y="513"/>
      <point x="94" y="512"/>
      <point x="81" y="510" type="curve"/>
      <point x="81" y="488" type="line"/>
      <point x="148" y="488" type="line"/>
      <point x="148" y="-46" type="line"/>
      <point x="81" y="-46" type="line"/>
      <point x="81" y="-68" type="line"/>
      <point x="94" y="-70"/>
      <point x="108" y="-70"/>
      <point x="123" y="-70" type="curve"/>
    </contour>
  </outline>
</glyph>
<glyph name="asterisk" format="1">
  <advance width="371"/>
  <unicode hex="002A"/>
  <note>
	asterisk
  </note>
  <outline>
    <contour>
      <point x="184" y="331" type="line"/>
      <point x="187" y="331" type="line"/>
      <point x="249" y="238" type="line"/>
      <point x="269" y="252" type="line"/>
      <point x="199" y="340" type="line"/>
      <point x="200" y="342" type="line"/>
      <point x="299" y="370" type="line"/>
      <point x="291" y="394" type="line"/>
      <point x="194" y="356" type="line"/>
      <point x="193" y="357" type="line"/>
      <point x="199" y="468" type="line"/>
      <point x="172" y="468" type="line"/>
      <point x="178" y="357" type="line"/>
      <point x="177" y="356" type="line"/>
      <point x="80" y="394" type="line"/>
      <point x="73" y="370" type="line"/>
      <point x="171" y="342" type="line"/>
      <point x="172" y="340" type="line"/>
      <point x="102" y="252" type="line"/>
      <point x="123" y="238" type="line"/>
    </contour>
  </outline>
</glyph>
<glyph name="comma" format="1">
  <advance width="173"/>
  <unicode hex="002C"/>
  <note>
	comma
  </note>
  <outline>
    <contour>
      <point x="107" y="-42"/>
      <point x="118" y="-12"/>
      <point x="118" y="22" type="curve" smooth="yes"/>
      <point x="118" y="49"/>
      <point x="105" y="64"/>
      <point x="80" y="64" type="curve" smooth="yes"/>
      <point x="70" y="64"/>
      <point x="62" y="62"/>
      <point x="56" y="60" type="curve"/>
      <point x="56" y="43" type="line"/>
      <point x="96" y="43" type="line"/>
      <point x="96" y="-7"/>
      <point x="87" y="-36"/>
      <point x="70" y="-66" type="curve"/>
      <point x="86" y="-70" type="line"/>
    </contour>
  </outline>
</glyph>
<glyph name="hyphen" format="1">
  <advance width="268"/>
  <unicode hex="002D"/>
  <note>
	hyphen
  </note>
  <outline>
    <contour>
      <point x="221" y="192" type="line"/>
      <point x="221" y="214" type="line"/>
      <point x="47" y="214" type="line"/>
      <point x="47" y="192" type="line"/>
    </contour>
  </outline>
</glyph>
<glyph name="slash" format="1">
  <advance width="355"/>
  <unicode hex="002F"/>
  <note>
	slash
  </note>
  <outline>
    <contour>
      <point x="283" y="471" type="line"/>
      <point x="261" y="477" type="line"/>
      <point x="71" y="-59" type="line"/>
      <point x="94" y="-65" type="line"/>
    </contour>
  </outline>
</glyph>
<glyph name="colon" format="1">
  <advance width="170"/>
  <unicode hex="003A"/>
  <note>
	colon
  </note>
  <outline>
    <contour>
      <point x="104" y="259" type="line"/>
      <point x="104" y="298" type="line"/>
      <point x="65" y="298" type="line"/>
      <point x="65" y="259" type="line"/>
    </contour>
    <contour>
      <point x="104" y="16" type="line"/>
      <point x="104" y="55" type="line"/>
      <point x="65" y="55" type="line"/>
      <point x="65" y="16" type="line"/>
    </contour>
  </outline>
</glyph>
<glyph name="bracketleft" format="1">
  <advance width="196"/>
  <unicode hex="005B"/>
  <note>
	bracketleft
  </note>
  <outline>
    <contour>
      <point x="133" y="-62" type="line"/>
      <point x="133" y="-41" type="line"/>
      <point x="88" y="-41" type="line"/>
      <point x="88" y="491" type="line"/>
      <point x="133" y="491" type="line"/>
      <point x="133" y="513" type="line"/>
      <point x="65" y="513" type="line"/>
      <point x="65" y="-62" type="line"/>
    </contour>
  </outline>
</glyph>
<glyph name="backslash" format="1">
  <advance width="306"/>
  <unicode hex="005C"/>
  <note>
	backslash
  </note>
  <outline>
    <contour>
      <point x="253" y="-4" type="line"/>
      <point x="75" y="457" type="line"/>
      <point x="53" y="452" type="line"/>
      <point x="230" y="-10" type="line"/>
    </contour>
  </outline>
</glyph>
<glyph name="bracketright" format="1">
  <advance width="196"/>
  <unicode hex="005D"/>
  <note>
	bracketright
  </note>
  <outline>
    <contour>
      <point x="131" y="-62" type="line"/>
      <point x="131" y="513" type="line"/>
      <point x="63" y="513" type="line"/>
      <point x="63" y="491" type="line"/>
      <point x="108" y="491" type="line"/>
      <point x="108" y="-41" type="line"/>
      <point x="63" y="-41" type="line"/>
      <point x="63" y="-62" type="line"/>
    </contour>
  </outline>
</glyph>
<glyph name="guillemotleft" format="1">
  <advance width="344"/>
  <unicode hex="00AB"/>
  <note>
	guillemotleft
  </note>
  <outline>
    <contour>
      <point x="276" y="65" type="line"/>
      <point x="189" y="181" type="line"/>
      <point x="189" y="183" type="line"/>
      <point x="276" y="299" type="line"/>
      <point x="261" y="305" type="line"/>
      <point x="167" y="182" type="line"/>
      <point x="261" y="59" type="line"/>
    </contour>
    <contour>
      <point x="160" y="65" type="line"/>
      <point x="73" y="181" type="line"/>
      <point x="73" y="183" type="line"/>
      <point x="160" y="299" type="line"/>
      <point x="145" y="305" type="line"/>
      <point x="51" y="182" type="line"/>
      <point x="145" y="59" type="line"/>
    </contour>
  </outline>
</glyph>
<glyph name="softhyphen" format="1">
  <advance width="226"/>
  <unicode hex="00AD"/>
  <note>
	softhyphen
  </note>
  <outline>
    <contour>
      <point x="179" y="178" type="line"/>
      <point x="179" y="199" type="line"/>
      <point x="47" y="199" type="line"/>
      <point x="47" y="178" type="line"/>
    </contour>
  </outline>
</glyph>
<glyph name="questiondown" format="1">
  <advance width="412"/>
  <unicode hex="00BF"/>
  <note>
	questiondown
  </note>
  <outline>
    <contour>
      <point x="255" y="-75"/>
      <point x="305" y="-63"/>
      <point x="333" y="-51" type="curve"/>
      <point x="333" y="-35" type="line" smooth="yes"/>
      <point x="333" y="-17"/>
      <point x="330" y="1"/>
      <point x="324" y="18" type="curve"/>
      <point x="310" y="18" type="line"/>
      <point x="310" y="-38" type="line"/>
      <point x="276" y="-48"/>
      <point x="238" y="-53"/>
      <point x="201" y="-53" type="curve" smooth="yes"/>
      <point x="131" y="-53"/>
      <point x="104" y="-28"/>
      <point x="104" y="34" type="curve" smooth="yes"/>
      <point x="104" y="88" type="line"/>
      <point x="217" y="173" type="line" smooth="yes"/>
      <point x="233" y="186"/>
      <point x="239" y="195"/>
      <point x="239" y="215" type="curve" smooth="yes"/>
      <point x="239" y="263" type="line"/>
      <point x="216" y="263" type="line"/>
      <point x="216" y="221" type="line" smooth="yes"/>
      <point x="216" y="201"/>
      <point x="214" y="197"/>
      <point x="199" y="186" type="curve" smooth="yes"/>
      <point x="117" y="124" type="line" smooth="yes"/>
      <point x="85" y="101"/>
      <point x="80" y="76"/>
      <point x="80" y="37" type="curve" smooth="yes"/>
      <point x="80" y="-41"/>
      <point x="114" y="-75"/>
      <point x="200" y="-75" type="curve" smooth="yes"/>
    </contour>
    <contour>
      <point x="241" y="321" type="line"/>
      <point x="241" y="375" type="line"/>
      <point x="215" y="375" type="line"/>
      <point x="215" y="321" type="line"/>
    </contour>
  </outline>
</glyph>
<glyph name="grAA" format="1">
  <advance width="607"/>
  <unicode hex="0A06"/>
  <outline>
    <component base="grA"/>
    <component base="grmAA" xOffset="469"/>
    <contour>
      <point x="469" y="439" type="move" name="top"/>
    </contour>
  </outline>
</glyph>
<glyph name="grEE" format="1">
  <advance width="371"/>
  <unicode hex="0A0F"/>
  <outline>
    <component base="grIri"/>
    <component base="grmEE" xOffset="381"/>
    <contour>
      <point x="388" y="439" type="move" name="top"/>
    </contour>
  </outline>
</glyph>
<glyph name="grAI" format="1">
  <advance width="469"/>
  <unicode hex="0A10"/>
  <outline>
    <component base="grA"/>
    <component base="grmAI" xOffset="470"/>
    <contour>
      <point x="491" y="439" type="move" name="top"/>
    </contour>
  </outline>
</glyph>
<glyph name="grGA" format="1">
  <advance width="476"/>
  <unicode hex="0A17"/>
  <outline>
    <contour>
      <point x="237" y="-4"/>
      <point x="268" y="28"/>
      <point x="268" y="96" type="curve" smooth="yes"/>
      <point x="268" y="421" type="line"/>
      <point x="396" y="421" type="line"/>
      <point x="396" y="0" type="line"/>
      <point x="418" y="0" type="line"/>
      <point x="418" y="421" type="line"/>
      <point x="505" y="421" type="line"/>
      <point x="505" y="439" type="line"/>
      <point x="-29" y="439" type="line"/>
      <point x="-29" y="421" type="line"/>
      <point x="246" y="421" type="line"/>
      <point x="246" y="264" type="line"/>
      <point x="137" y="264" type="line" smooth="yes"/>
      <point x="67" y="264"/>
      <point x="32" y="239"/>
      <point x="32" y="177" type="curve" smooth="yes"/>
      <point x="32" y="81"/>
      <point x="114" y="-4"/>
      <point x="193" y="-4" type="curve" smooth="yes"/>
    </contour>
    <contour>
      <point x="128" y="15"/>
      <point x="81" y="73"/>
      <point x="55" y="119" type="curve"/>
      <point x="54" y="137"/>
      <point x="54" y="152"/>
      <point x="54" y="165" type="curve" smooth="yes"/>
      <point x="54" y="213"/>
      <point x="65" y="246"/>
      <point x="152" y="246" type="curve" smooth="yes"/>
      <point x="246" y="246" type="line"/>
      <point x="246" y="94" type="line" smooth="yes"/>
      <point x="246" y="43"/>
      <point x="225" y="15"/>
      <point x="191" y="15" type="curve" smooth="yes"/>
    </contour>
  </outline>
</glyph>
<glyph name="grNGA" format="1">
  <advance width="422"/>
  <unicode hex="0A19"/>
  <outline>
    <contour>
      <point x="280" y="-4"/>
      <point x="372" y="86"/>
      <point x="372" y="181" type="curve" smooth="yes"/>
      <point x="372" y="235"/>
      <point x="339" y="268"/>
      <point x="292" y="268" type="curve" smooth="yes"/>
      <point x="123" y="268" type="line"/>
      <point x="123" y="426" type="line"/>
      <point x="101" y="426" type="line"/>
      <point x="101" y="249" type="line"/>
      <point x="318" y="249" type="line"/>
      <point x="338" y="236"/>
      <point x="348" y="210"/>
      <point x="348" y="181" type="curve" smooth="yes"/>
      <point x="348" y="99"/>
      <point x="270" y="16"/>
      <point x="165" y="16" type="curve" smooth="yes"/>
      <point x="134" y="16"/>
      <point x="107" y="22"/>
      <point x="80" y="36" type="curve"/>
      <point x="74" y="51"/>
      <point x="72" y="64"/>
      <point x="72" y="81" type="curve" smooth="yes"/>
      <point x="72" y="121"/>
      <point x="100" y="150"/>
      <point x="147" y="150" type="curve" smooth="yes"/>
      <point x="166" y="150"/>
      <point x="182" y="146"/>
      <point x="203" y="137" type="curve"/>
      <point x="378" y="-7" type="line"/>
      <point x="381" y="-6"/>
      <point x="384" y="-3"/>
      <point x="386" y="2" type="curve"/>
      <point x="236" y="132" type="line" smooth="yes"/>
      <point x="202" y="161"/>
      <point x="168" y="170"/>
      <point x="137" y="170" type="curve" smooth="yes"/>
      <point x="88" y="170"/>
      <point x="48" y="139"/>
      <point x="48" y="88" type="curve" smooth="yes"/>
      <point x="48" y="38"/>
      <point x="86" y="-4"/>
      <point x="173" y="-4" type="curve" smooth="yes"/>
    </contour>
    <contour>
      <point x="451" y="421" type="line"/>
      <point x="451" y="439" type="line"/>
      <point x="-29" y="439" type="line"/>
      <point x="-29" y="421" type="line"/>
    </contour>
    <contour>
      <point x="318" y="439" type="move" name="top"/>
    </contour>
    <contour>
      <point x="222" y="0" type="move" name="bottom"/>
    </contour>
  </outline>
</glyph>
<glyph name="grCA" format="1">
  <advance width="398"/>
  <unicode hex="0A1A"/>
  <outline>
    <contour>
      <point x="310" y="-4"/>
      <point x="340" y="28"/>
      <point x="340" y="92" type="curve" smooth="yes"/>
      <point x="340" y="421" type="line"/>
      <point x="427" y="421" type="line"/>
      <point x="427" y="439" type="line"/>
      <point x="-29" y="439" type="line"/>
      <point x="-29" y="421" type="line"/>
      <point x="318" y="421" type="line"/>
      <point x="318" y="268" type="line"/>
      <point x="84" y="268" type="line"/>
      <point x="24" y="320" type="line"/>
      <point x="17" y="318"/>
      <point x="15" y="315"/>
      <point x="12" y="310" type="curve"/>
      <point x="12" y="295"/>
      <point x="30" y="269"/>
      <point x="72" y="248" type="curve"/>
      <point x="79" y="73"/>
      <point x="169" y="-4"/>
      <point x="258" y="-4" type="curve" smooth="yes"/>
    </contour>
    <contour>
      <point x="175" y="15"/>
      <point x="102" y="94"/>
      <point x="89" y="208" type="curve" smooth="yes"/>
      <point x="85" y="249" type="line"/>
      <point x="318" y="249" type="line"/>
      <point x="318" y="92" type="line" smooth="yes"/>
      <point x="318" y="38"/>
      <point x="296" y="15"/>
      <point x="257" y="15" type="curve" smooth="yes"/>
    </contour>
    <contour>
      <point x="329" y="439" type="move" name="top"/>
    </contour>
    <contour>
      <point x="232" y="0" type="move" name="bottom"/>
    </contour>
  </outline>
</glyph>
<glyph name="grCHA" format="1">
  <advance width="428"/>
  <unicode hex="0A1B"/>
  <outline>
    <contour>
      <point x="360" y="-4"/>
      <point x="391" y="50"/>
      <point x="391" y="95" type="curve" smooth="yes"/>
      <point x="391" y="152"/>
      <point x="357" y="194"/>
      <point x="217" y="194" type="curve" smooth="yes"/>
      <point x="129" y="194" type="line"/>
      <point x="112" y="208"/>
      <point x="104" y="225"/>
      <point x="104" y="249" type="curve" smooth="yes"/>
      <point x="104" y="283"/>
      <point x="125" y="305"/>
      <point x="171" y="305" type="curve" smooth="yes"/>
      <point x="339" y="305" type="line"/>
      <point x="339" y="431" type="line"/>
      <point x="316" y="431" type="line"/>
      <point x="316" y="323" type="line"/>
      <point x="168" y="323" type="line" smooth="yes"/>
      <point x="112" y="323"/>
      <point x="83" y="294"/>
      <point x="83" y="249" type="curve" smooth="yes"/>
      <point x="83" y="205"/>
      <point x="112" y="175"/>
      <point x="168" y="175" type="curve" smooth="yes"/>
      <point x="217" y="175" type="line" smooth="yes"/>
      <point x="284" y="175"/>
      <point x="320" y="168"/>
      <point x="351" y="156" type="curve"/>
      <point x="363" y="138"/>
      <point x="368" y="120"/>
      <point x="368" y="95" type="curve" smooth="yes"/>
      <point x="368" y="53"/>
      <point x="336" y="15"/>
      <point x="217" y="15" type="curve" smooth="yes"/>
      <point x="149" y="15"/>
      <point x="114" y="22"/>
      <point x="83" y="34" type="curve"/>
      <point x="70" y="51"/>
      <point x="66" y="70"/>
      <point x="66" y="95" type="curve" smooth="yes"/>
      <point x="66" y="139"/>
      <point x="91" y="170"/>
      <point x="141" y="186" type="curve"/>
      <point x="126" y="191" type="line"/>
      <point x="83" y="182"/>
      <point x="43" y="153"/>
      <point x="43" y="95" type="curve" smooth="yes"/>
      <point x="43" y="38"/>
      <point x="76" y="-4"/>
      <point x="217" y="-4" type="curve" smooth="yes"/>
    </contour>
    <contour>
      <point x="225" y="8" type="line"/>
      <point x="225" y="181" type="line"/>
      <point x="204" y="181" type="line"/>
      <point x="204" y="8" type="line"/>
    </contour>
    <contour>
      <point x="457" y="421" type="line"/>
      <point x="457" y="439" type="line"/>
      <point x="-29" y="439" type="line"/>
      <point x="-29" y="421" type="line"/>
    </contour>
    <contour>
      <point x="328" y="439" type="move" name="top"/>
    </contour>
    <contour>
      <point x="217" y="0" type="move" name="bottom"/>
    </contour>
  </outline>
</glyph>
<glyph name="grJA" format="1">
  <advance width="386"/>
  <unicode hex="0A1C"/>
  <outline>
    <contour>
      <point x="107" y="0" type="line"/>
      <point x="107" y="249" type="line"/>
      <point x="307" y="249" type="line"/>
      <point x="307" y="0" type="line"/>
      <point x="328" y="0" type="line"/>
      <point x="328" y="421" type="line"/>
      <point x="415" y="421" type="line"/>
      <point x="415" y="439" type="line"/>
      <point x="-29" y="439" type="line"/>
      <point x="-29" y="421" type="line"/>
      <point x="307" y="421" type="line"/>
      <point x="307" y="268" type="line"/>
      <point x="106" y="268" type="line"/>
      <point x="46" y="320" type="line"/>
      <point x="39" y="318"/>
      <point x="36" y="315"/>
      <point x="34" y="310" type="curve"/>
      <point x="34" y="297"/>
      <point x="49" y="274"/>
      <point x="85" y="254" type="curve"/>
      <point x="85" y="0" type="line"/>
    </contour>
  </outline>
</glyph>
<glyph name="grJHA" format="1">
  <advance width="385"/>
  <unicode hex="0A1D"/>
  <outline>
    <contour>
      <point x="264" y="46"/>
      <point x="343" y="78"/>
      <point x="343" y="153" type="curve" smooth="yes"/>
      <point x="343" y="220"/>
      <point x="292" y="255"/>
      <point x="220" y="265" type="curve"/>
      <point x="188" y="258" type="line"/>
      <point x="168" y="266" type="line"/>
      <point x="128" y="265"/>
      <point x="95" y="254"/>
      <point x="54" y="236" type="curve"/>
      <point x="59" y="225" type="line"/>
      <point x="103" y="241"/>
      <point x="139" y="249"/>
      <point x="181" y="249" type="curve" smooth="yes"/>
      <point x="235" y="249"/>
      <point x="269" y="237"/>
      <point x="302" y="221" type="curve"/>
      <point x="314" y="200"/>
      <point x="320" y="180"/>
      <point x="320" y="158" type="curve" smooth="yes"/>
      <point x="320" y="91"/>
      <point x="268" y="65"/>
      <point x="182" y="55" type="curve"/>
      <point x="70" y="116" type="line"/>
      <point x="62" y="116"/>
      <point x="54" y="111"/>
      <point x="54" y="101" type="curve" smooth="yes"/>
      <point x="54" y="99"/>
      <point x="55" y="96"/>
      <point x="56" y="94" type="curve"/>
      <point x="80" y="72"/>
      <point x="140" y="46"/>
      <point x="189" y="46" type="curve" smooth="yes"/>
    </contour>
    <contour>
      <point x="281" y="-2"/>
      <point x="285" y="1"/>
      <point x="286" y="4" type="curve"/>
      <point x="196" y="49" type="line"/>
      <point x="157" y="53" type="line"/>
      <point x="278" y="-3" type="line"/>
    </contour>
    <contour>
      <point x="243" y="252"/>
      <point x="330" y="306"/>
      <point x="357" y="425" type="curve"/>
      <point x="334" y="425" type="line"/>
      <point x="307" y="331"/>
      <point x="254" y="286"/>
      <point x="187" y="263" type="curve"/>
      <point x="128" y="286"/>
      <point x="74" y="341"/>
      <point x="52" y="425" type="curve"/>
      <point x="35" y="425" type="line"/>
      <point x="61" y="312"/>
      <point x="153" y="252"/>
      <point x="191" y="252" type="curve" smooth="yes"/>
    </contour>
    <contour>
      <point x="414" y="421" type="line"/>
      <point x="414" y="439" type="line"/>
      <point x="-29" y="439" type="line"/>
      <point x="-29" y="421" type="line"/>
    </contour>
    <contour>
      <point x="346" y="439" type="move" name="top"/>
    </contour>
    <contour>
      <point x="187" y="0" type="move" name="bottom"/>
    </contour>
  </outline>
</glyph>
<glyph name="grTTHA" format="1">
  <advance width="470"/>
  <unicode hex="0A20"/>
  <outline>
    <contour>
      <point x="351" y="-4"/>
      <point x="419" y="51"/>
      <point x="419" y="144" type="curve" smooth="yes"/>
      <point x="419" y="236"/>
      <point x="351" y="291"/>
      <point x="236" y="291" type="curve" smooth="yes"/>
      <point x="120" y="291"/>
      <point x="51" y="236"/>
      <point x="51" y="144" type="curve" smooth="yes"/>
      <point x="51" y="51"/>
      <point x="120" y="-4"/>
      <point x="236" y="-4" type="curve" smooth="yes"/>
    </contour>
    <contour>
      <point x="194" y="15"/>
      <point x="156" y="20"/>
      <point x="115" y="37" type="curve"/>
      <point x="88" y="67"/>
      <point x="74" y="99"/>
      <point x="74" y="144" type="curve" smooth="yes"/>
      <point x="74" y="223"/>
      <point x="123" y="273"/>
      <point x="234" y="273" type="curve" smooth="yes"/>
      <point x="276" y="273"/>
      <point x="313" y="268"/>
      <point x="355" y="250" type="curve"/>
      <point x="381" y="220"/>
      <point x="396" y="189"/>
      <point x="396" y="144" type="curve" smooth="yes"/>
      <point x="396" y="65"/>
      <point x="347" y="15"/>
      <point x="236" y="15" type="curve" smooth="yes"/>
    </contour>
    <contour>
      <point x="499" y="421" type="line"/>
      <point x="499" y="439" type="line"/>
      <point x="-29" y="439" type="line"/>
      <point x="-29" y="421" type="line"/>
    </contour>
    <contour>
      <point x="225" y="426" type="line"/>
      <point x="225" y="286" type="line"/>
      <point x="247" y="286" type="line"/>
      <point x="247" y="426" type="line"/>
    </contour>
    <contour>
      <point x="363" y="439" type="move" name="top"/>
    </contour>
    <contour>
      <point x="236" y="0" type="move" name="bottom"/>
    </contour>
  </outline>
</glyph>
<glyph name="grTA" format="1">
  <advance width="418"/>
  <unicode hex="0A24"/>
  <outline>
    <contour>
      <point x="299" y="-4"/>
      <point x="374" y="59"/>
      <point x="374" y="137" type="curve" smooth="yes"/>
      <point x="374" y="215"/>
      <point x="310" y="278"/>
      <point x="181" y="278" type="curve" smooth="yes"/>
      <point x="104" y="278"/>
      <point x="98" y="268"/>
      <point x="98" y="260" type="curve" smooth="yes"/>
      <point x="98" y="258"/>
      <point x="98" y="256"/>
      <point x="99" y="254" type="curve"/>
      <point x="117" y="249"/>
      <point x="161" y="245"/>
      <point x="194" y="245" type="curve" smooth="yes"/>
      <point x="225" y="245"/>
      <point x="240" y="248"/>
      <point x="276" y="254" type="curve"/>
      <point x="326" y="233"/>
      <point x="350" y="195"/>
      <point x="350" y="137" type="curve" smooth="yes"/>
      <point x="350" y="79"/>
      <point x="296" y="11"/>
      <point x="181" y="11" type="curve"/>
      <point x="138" y="25"/>
      <point x="85" y="50"/>
      <point x="44" y="75" type="curve"/>
      <point x="38" y="67" type="line"/>
      <point x="102" y="22"/>
      <point x="154" y="-4"/>
      <point x="205" y="-4" type="curve" smooth="yes"/>
    </contour>
    <contour>
      <point x="319" y="311"/>
      <point x="335" y="372"/>
      <point x="341" y="431" type="curve"/>
      <point x="314" y="431" type="line"/>
      <point x="312" y="371"/>
      <point x="299" y="319"/>
      <point x="268" y="265" type="curve"/>
      <point x="281" y="260" type="line"/>
    </contour>
    <contour>
      <point x="447" y="421" type="line"/>
      <point x="447" y="439" type="line"/>
      <point x="-29" y="439" type="line"/>
      <point x="-29" y="421" type="line"/>
    </contour>
    <contour>
      <point x="328" y="439" type="move" name="top"/>
    </contour>
    <contour>
      <point x="210" y="0" type="move" name="bottom"/>
    </contour>
  </outline>
</glyph>
<glyph name="grDHA" format="1">
  <advance width="381"/>
  <unicode hex="0A27"/>
  <outline>
    <contour>
      <point x="323" y="0" type="line"/>
      <point x="323" y="426" type="line"/>
      <point x="302" y="426" type="line"/>
      <point x="302" y="162" type="line"/>
      <point x="247" y="130"/>
      <point x="209" y="122"/>
      <point x="167" y="122" type="curve" smooth="yes"/>
      <point x="129" y="122"/>
      <point x="78" y="132"/>
      <point x="59" y="168" type="curve"/>
      <point x="94" y="217"/>
      <point x="115" y="264"/>
      <point x="115" y="315" type="curve" smooth="yes"/>
      <point x="115" y="360"/>
      <point x="105" y="391"/>
      <point x="83" y="429" type="curve"/>
      <point x="69" y="423" type="line"/>
      <point x="89" y="389"/>
      <point x="94" y="355"/>
      <point x="94" y="318" type="curve" smooth="yes"/>
      <point x="94" y="276"/>
      <point x="80" y="239"/>
      <point x="45" y="187" type="curve" smooth="yes"/>
      <point x="39" y="178"/>
      <point x="38" y="175"/>
      <point x="38" y="170" type="curve" smooth="yes"/>
      <point x="38" y="145"/>
      <point x="99" y="101"/>
      <point x="167" y="101" type="curve" smooth="yes"/>
      <point x="212" y="101"/>
      <point x="253" y="110"/>
      <point x="302" y="137" type="curve"/>
      <point x="304" y="136" type="line"/>
      <point x="302" y="75" type="line"/>
      <point x="302" y="0" type="line"/>
    </contour>
    <contour>
      <point x="410" y="421" type="line"/>
      <point x="410" y="439" type="line"/>
      <point x="-29" y="439" type="line"/>
      <point x="-29" y="421" type="line"/>
    </contour>
  </outline>
</glyph>
<glyph name="grNA" format="1">
  <advance width="460"/>
  <unicode hex="0A28"/>
  <outline>
    <contour>
      <point x="149" y="-4"/>
      <point x="152" y="-1"/>
      <point x="154" y="4" type="curve"/>
      <point x="80" y="53"/>
      <point x="65" y="98"/>
      <point x="65" y="141" type="curve" smooth="yes"/>
      <point x="65" y="210"/>
      <point x="118" y="270"/>
      <point x="230" y="270" type="curve" smooth="yes"/>
      <point x="287" y="270"/>
      <point x="327" y="257"/>
      <point x="374" y="225" type="curve"/>
      <point x="387" y="198"/>
      <point x="394" y="169"/>
      <point x="394" y="141" type="curve" smooth="yes"/>
      <point x="394" y="83"/>
      <point x="362" y="36"/>
      <point x="301" y="12" type="curve"/>
      <point x="302" y="5"/>
      <point x="306" y="-1"/>
      <point x="312" y="-6" type="curve"/>
      <point x="379" y="15"/>
      <point x="416" y="74"/>
      <point x="416" y="141" type="curve" smooth="yes"/>
      <point x="416" y="228"/>
      <point x="349" y="288"/>
      <point x="230" y="288" type="curve" smooth="yes"/>
      <point x="110" y="288"/>
      <point x="44" y="223"/>
      <point x="44" y="141" type="curve" smooth="yes"/>
      <point x="44" y="88"/>
      <point x="70" y="44"/>
      <point x="145" y="-6" type="curve"/>
    </contour>
    <contour>
      <point x="240" y="278" type="line"/>
      <point x="240" y="430" type="line"/>
      <point x="218" y="430" type="line"/>
      <point x="218" y="278" type="line"/>
    </contour>
    <contour>
      <point x="489" y="421" type="line"/>
      <point x="489" y="439" type="line"/>
      <point x="-29" y="439" type="line"/>
      <point x="-29" y="421" type="line"/>
    </contour>
    <contour>
      <point x="332" y="439" type="move" name="top"/>
    </contour>
    <contour>
      <point x="229" y="0" type="move" name="bottom"/>
    </contour>
  </outline>
</glyph>
<glyph name="grBHA" format="1">
  <advance width="442"/>
  <unicode hex="0A2D"/>
  <outline>
    <contour>
      <point x="317" y="-4"/>
      <point x="400" y="62"/>
      <point x="400" y="152" type="curve" smooth="yes"/>
      <point x="400" y="243"/>
      <point x="327" y="323"/>
      <point x="193" y="323" type="curve" smooth="yes"/>
      <point x="102" y="323"/>
      <point x="63" y="283"/>
      <point x="63" y="237" type="curve" smooth="yes"/>
      <point x="63" y="194"/>
      <point x="95" y="160"/>
      <point x="169" y="160" type="curve" smooth="yes"/>
      <point x="288" y="160"/>
      <point x="350" y="276"/>
      <point x="353" y="423" type="curve"/>
      <point x="329" y="423" type="line"/>
      <point x="326" y="260"/>
      <point x="260" y="178"/>
      <point x="169" y="178" type="curve" smooth="yes"/>
      <point x="142" y="178"/>
      <point x="124" y="181"/>
      <point x="102" y="186" type="curve"/>
      <point x="92" y="199"/>
      <point x="87" y="216"/>
      <point x="87" y="234" type="curve" smooth="yes"/>
      <point x="87" y="276"/>
      <point x="116" y="305"/>
      <point x="193" y="305" type="curve" smooth="yes"/>
      <point x="315" y="305"/>
      <point x="376" y="236"/>
      <point x="376" y="149" type="curve" smooth="yes"/>
      <point x="376" y="65"/>
      <point x="295" y="14"/>
      <point x="193" y="12" type="curve"/>
      <point x="141" y="25"/>
      <point x="95" y="44"/>
      <point x="40" y="83" type="curve"/>
      <point x="34" y="74" type="line"/>
      <point x="91" y="25"/>
      <point x="148" y="-4"/>
      <point x="212" y="-4" type="curve" smooth="yes"/>
    </contour>
    <contour>
      <point x="471" y="421" type="line"/>
      <point x="471" y="439" type="line"/>
      <point x="-29" y="439" type="line"/>
      <point x="-29" y="421" type="line"/>
    </contour>
    <contour>
      <point x="341" y="439" type="move" name="top"/>
    </contour>
    <contour>
      <point x="218" y="0" type="move" name="bottom"/>
    </contour>
  </outline>
</glyph>
<glyph name="grRA" format="1">
  <advance width="318"/>
  <unicode hex="0A30"/>
  <outline>
    <contour>
      <point x="237" y="-4"/>
      <point x="268" y="28"/>
      <point x="268" y="96" type="curve" smooth="yes"/>
      <point x="268" y="421" type="line"/>
      <point x="347" y="421" type="line"/>
      <point x="347" y="439" type="line"/>
      <point x="-29" y="439" type="line"/>
      <point x="-29" y="421" type="line"/>
      <point x="246" y="421" type="line"/>
      <point x="246" y="264" type="line"/>
      <point x="137" y="264" type="line" smooth="yes"/>
      <point x="67" y="264"/>
      <point x="32" y="239"/>
      <point x="32" y="177" type="curve" smooth="yes"/>
      <point x="32" y="81"/>
      <point x="114" y="-4"/>
      <point x="193" y="-4" type="curve" smooth="yes"/>
    </contour>
    <contour>
      <point x="128" y="15"/>
      <point x="81" y="73"/>
      <point x="55" y="119" type="curve"/>
      <point x="54" y="137"/>
      <point x="54" y="152"/>
      <point x="54" y="165" type="curve" smooth="yes"/>
      <point x="54" y="213"/>
      <point x="65" y="246"/>
      <point x="152" y="246" type="curve" smooth="yes"/>
      <point x="246" y="246" type="line"/>
      <point x="246" y="94" type="line" smooth="yes"/>
      <point x="246" y="43"/>
      <point x="225" y="15"/>
      <point x="191" y="15" type="curve" smooth="yes"/>
    </contour>
    <contour>
      <point x="257" y="439" type="move" name="top"/>
    </contour>
    <contour>
      <point x="165" y="0" type="move" name="bottom"/>
    </contour>
  </outline>
</glyph>
<glyph name="grLxA" format="1">
  <advance width="499"/>
  <unicode hex="0A33"/>
  <outline>
    <contour>
      <point x="265" y="187"/>
      <point x="373" y="262"/>
      <point x="384" y="427" type="curve"/>
      <point x="363" y="427" type="line"/>
      <point x="349" y="294"/>
      <point x="288" y="230"/>
      <point x="235" y="205" type="curve"/>
      <point x="189" y="234"/>
      <point x="131" y="297"/>
      <point x="107" y="422" type="curve"/>
      <point x="86" y="422" type="line"/>
      <point x="112" y="289"/>
      <point x="203" y="187"/>
      <point x="239" y="187" type="curve" smooth="yes"/>
    </contour>
    <contour>
      <point x="157" y="-4"/>
      <point x="160" y="-1"/>
      <point x="161" y="4" type="curve"/>
      <point x="87" y="53"/>
      <point x="73" y="98"/>
      <point x="73" y="149" type="curve" smooth="yes"/>
      <point x="73" y="204"/>
      <point x="101" y="249"/>
      <point x="154" y="271" type="curve"/>
      <point x="144" y="289" type="line"/>
      <point x="88" y="264"/>
      <point x="51" y="218"/>
      <point x="51" y="149" type="curve" smooth="yes"/>
      <point x="51" y="88"/>
      <point x="78" y="44"/>
      <point x="152" y="-6" type="curve"/>
    </contour>
    <contour>
      <point x="382" y="15"/>
      <point x="419" y="74"/>
      <point x="419" y="149" type="curve" smooth="yes"/>
      <point x="419" y="208"/>
      <point x="384" y="258"/>
      <point x="331" y="285" type="curve"/>
      <point x="325" y="273" type="line"/>
      <point x="373" y="246"/>
      <point x="397" y="202"/>
      <point x="397" y="149" type="curve" smooth="yes"/>
      <point x="397" y="80"/>
      <point x="363" y="33"/>
      <point x="304" y="12" type="curve"/>
      <point x="305" y="5"/>
      <point x="309" y="-1"/>
      <point x="315" y="-6" type="curve"/>
    </contour>
    <contour>
      <point x="480" y="-8"/>
      <point x="490" y="1"/>
      <point x="490" y="13" type="curve" smooth="yes"/>
      <point x="490" y="25"/>
      <point x="480" y="34"/>
      <point x="469" y="34" type="curve" smooth="yes"/>
      <point x="458" y="34"/>
      <point x="448" y="25"/>
      <point x="448" y="13" type="curve" smooth="yes"/>
      <point x="448" y="1"/>
      <point x="457" y="-8"/>
      <point x="469" y="-8" type="curve" smooth="yes"/>
    </contour>
    <contour>
      <point x="528" y="421" type="line"/>
      <point x="528" y="439" type="line"/>
      <point x="-29" y="439" type="line"/>
      <point x="-29" y="421" type="line"/>
    </contour>
    <contour>
      <point x="373" y="439" type="move" name="top"/>
    </contour>
    <contour>
      <point x="232" y="0" type="move" name="bottom"/>
    </contour>
  </outline>
</glyph>
<glyph name="grmII" format="1">
  <advance width="138"/>
  <unicode hex="0A40"/>
  <outline>
    <contour>
      <point x="80" y="0" type="line"/>
      <point x="80" y="421" type="line"/>
      <point x="167" y="421" type="line"/>
      <point x="167" y="439" type="line"/>
      <point x="-29" y="439" type="line"/>
      <point x="-29" y="421" type="line"/>
      <point x="58" y="421" type="line"/>
      <point x="58" y="0" type="line"/>
    </contour>
    <contour>
      <point x="80" y="434" type="line"/>
      <point x="80" y="528" type="line" smooth="yes"/>
      <point x="80" y="581"/>
      <point x="30" y="620"/>
      <point x="-27" y="620" type="curve" smooth="yes"/>
      <point x="-82" y="620"/>
      <point x="-120" y="581"/>
      <point x="-120" y="526" type="curve" smooth="yes"/>
      <point x="-120" y="487"/>
      <point x="-101" y="455"/>
      <point x="-73" y="434" type="curve"/>
      <point x="-59" y="434" type="line"/>
      <point x="-83" y="457"/>
      <point x="-101" y="487"/>
      <point x="-101" y="521" type="curve" smooth="yes"/>
      <point x="-101" y="567"/>
      <point x="-70" y="600"/>
      <point x="-25" y="600" type="curve" smooth="yes"/>
      <point x="4" y="600"/>
      <point x="38" y="584"/>
      <point x="58" y="563" type="curve"/>
      <point x="58" y="434" type="line"/>
    </contour>
  </outline>
</glyph>
<glyph name="grmEE" format="1">
  <advance width="0"/>
  <unicode hex="0A47"/>
  <outline>
    <contour>
      <point x="-131" y="576" type="line" smooth="yes"/>
      <point x="-144" y="600"/>
      <point x="-160" y="612"/>
      <point x="-183" y="612" type="curve" smooth="yes"/>
      <point x="-202" y="612"/>
      <point x="-236" y="600"/>
      <point x="-268" y="589" type="curve"/>
      <point x="-265" y="579" type="line"/>
      <point x="-164" y="589" type="line"/>
      <point x="-73" y="436" type="line"/>
      <point x="-59" y="436" type="line"/>
    </contour>
    <contour>
      <point x="-66" y="439" type="move" name="_top"/>
    </contour>
  </outline>
</glyph>
<glyph name="grmOO" format="1">
  <advance width="0"/>
  <unicode hex="0A4B"/>
  <outline>
    <contour>
      <point x="-58" y="434" type="line"/>
      <point x="-107" y="530" type="line" smooth="yes"/>
      <point x="-120" y="555"/>
      <point x="-132" y="567"/>
      <point x="-163" y="567" type="curve" smooth="yes"/>
      <point x="-223" y="567" type="line" smooth="yes"/>
      <point x="-265" y="567"/>
      <point x="-276" y="583"/>
      <point x="-279" y="621" type="curve"/>
      <point x="-284" y="621" type="line"/>
      <point x="-288" y="611"/>
      <point x="-289" y="602"/>
      <point x="-289" y="595" type="curve" smooth="yes"/>
      <point x="-289" y="566"/>
      <point x="-267" y="549"/>
      <point x="-223" y="549" type="curve" smooth="yes"/>
      <point x="-139" y="549" type="line"/>
      <point x="-70" y="434" type="line"/>
    </contour>
    <contour>
      <point x="-65" y="439" type="move" name="_top"/>
    </contour>
  </outline>
</glyph>
<glyph name="grUdaat" format="1">
  <advance width="0"/>
  <unicode hex="0A51"/>
  <outline>
    <contour>
      <point x="-31" y="-233"/>
      <point x="-12" y="-222"/>
      <point x="17" y="-202" type="curve"/>
      <point x="14" y="-193" type="line"/>
      <point x="-58" y="-213" type="line"/>
      <point x="-182" y="-72" type="line"/>
      <point x="-193" y="-76" type="line"/>
      <point x="-97" y="-198" type="line" smooth="yes"/>
      <point x="-75" y="-226"/>
      <point x="-60" y="-233"/>
      <point x="-46" y="-233" type="curve" smooth="yes"/>
    </contour>
    <contour>
      <point x="-69" y="0" type="move" name="_bottom"/>
    </contour>
  </outline>
</glyph>
<glyph name="grKHxA" format="1">
  <advance width="381"/>
  <unicode hex="0A59"/>
  <outline>
    <contour>
      <point x="323" y="0" type="line"/>
      <point x="323" y="421" type="line"/>
      <point x="410" y="421" type="line"/>
      <point x="410" y="439" type="line"/>
      <point x="302" y="439" type="line"/>
      <point x="302" y="162" type="line"/>
      <point x="247" y="130"/>
      <point x="209" y="122"/>
      <point x="167" y="122" type="curve" smooth="yes"/>
      <point x="129" y="122"/>
      <point x="83" y="131"/>
      <point x="58" y="167" type="curve"/>
      <point x="96" y="225"/>
      <point x="115" y="265"/>
      <point x="115" y="323" type="curve" smooth="yes"/>
      <point x="115" y="381"/>
      <point x="88" y="439"/>
      <point x="20" y="439" type="curve" smooth="yes"/>
      <point x="-29" y="439" type="line"/>
      <point x="-29" y="421" type="line" smooth="yes"/>
      <point x="20" y="421" type="line" smooth="yes"/>
      <point x="42" y="421"/>
      <point x="59" y="418"/>
      <point x="75" y="409" type="curve"/>
      <point x="88" y="383"/>
      <point x="94" y="355"/>
      <point x="94" y="323" type="curve" smooth="yes"/>
      <point x="94" y="277"/>
      <point x="76" y="234"/>
      <point x="45" y="187" type="curve" smooth="yes"/>
      <point x="39" y="178"/>
      <point x="38" y="175"/>
      <point x="38" y="170" type="curve" smooth="yes"/>
      <point x="38" y="142"/>
      <point x="99" y="101"/>
      <point x="167" y="101" type="curve" smooth="yes"/>
      <point x="212" y="101"/>
      <point x="253" y="110"/>
      <point x="302" y="137" type="curve"/>
      <point x="304" y="136" type="line"/>
      <point x="302" y="75" type="line"/>
      <point x="302" y="0" type="line"/>
    </contour>
    <contour>
      <point x="70" y="-8"/>
      <point x="80" y="1"/>
      <point x="80" y="13" type="curve" smooth="yes"/>
      <point x="80" y="25"/>
      <point x="70" y="34"/>
      <point x="59" y="34" type="curve" smooth="yes"/>
      <point x="48" y="34"/>
      <point x="38" y="25"/>
      <point x="38" y="13" type="curve" smooth="yes"/>
      <point x="38" y="1"/>
      <point x="47" y="-8"/>
      <point x="59" y="-8" type="curve" smooth="yes"/>
    </contour>
    <contour>
      <point x="314" y="269" type="line"/>
      <point x="314" y="287" type="line"/>
      <point x="102" y="287" type="line"/>
      <point x="102" y="269" type="line"/>
    </contour>
  </outline>
</glyph>
<glyph name="grZero" format="1">
  <advance width="390"/>
  <unicode hex="0A66"/>
  <outline>
    <contour>
      <point x="299" y="62"/>
      <point x="347" y="125"/>
      <point x="347" y="230" type="curve" smooth="yes"/>
      <point x="347" y="318"/>
      <point x="320" y="401"/>
      <point x="186" y="401" type="curve" smooth="yes"/>
      <point x="99" y="401"/>
      <point x="44" y="343"/>
      <point x="44" y="233" type="curve" smooth="yes"/>
      <point x="44" y="145"/>
      <point x="71" y="62"/>
      <point x="204" y="62" type="curve" smooth="yes"/>
    </contour>
    <contour>
      <point x="162" y="83"/>
      <point x="129" y="89"/>
      <point x="104" y="102" type="curve"/>
      <point x="83" y="130"/>
      <point x="68" y="182"/>
      <point x="68" y="233" type="curve" smooth="yes"/>
      <point x="68" y="332"/>
      <point x="110" y="380"/>
      <point x="192" y="380" type="curve" smooth="yes"/>
      <point x="228" y="380"/>
      <point x="262" y="375"/>
      <point x="287" y="361" type="curve"/>
      <point x="308" y="334"/>
      <point x="323" y="281"/>
      <point x="323" y="230" type="curve" smooth="yes"/>
      <point x="323" y="131"/>
      <point x="281" y="83"/>
      <point x="199" y="83" type="curve" smooth="yes"/>
    </contour>
  </outline>
</glyph>
<glyph name="grOne" format="1">
  <advance width="381"/>
  <unicode hex="0A67"/>
  <outline>
    <contour>
      <point x="292" y="0"/>
      <point x="297" y="1"/>
      <point x="299" y="3" type="curve"/>
      <point x="283" y="70" type="line"/>
      <point x="300" y="285" type="line" smooth="yes"/>
      <point x="308" y="392"/>
      <point x="275" y="438"/>
      <point x="179" y="438" type="curve" smooth="yes"/>
      <point x="98" y="438"/>
      <point x="47" y="388"/>
      <point x="47" y="311" type="curve" smooth="yes"/>
      <point x="47" y="254"/>
      <point x="73" y="195"/>
      <point x="170" y="195" type="curve" smooth="yes"/>
      <point x="219" y="195"/>
      <point x="249" y="212"/>
      <point x="272" y="241" type="curve"/>
      <point x="273" y="240" type="line"/>
      <point x="263" y="107" type="line" smooth="yes"/>
      <point x="260" y="60"/>
      <point x="273" y="22"/>
      <point x="282" y="0" type="curve"/>
    </contour>
    <contour>
      <point x="135" y="213"/>
      <point x="117" y="218"/>
      <point x="94" y="228" type="curve"/>
      <point x="78" y="248"/>
      <point x="71" y="277"/>
      <point x="71" y="312" type="curve" smooth="yes"/>
      <point x="71" y="381"/>
      <point x="117" y="420"/>
      <point x="181" y="420" type="curve" smooth="yes"/>
      <point x="211" y="420"/>
      <point x="237" y="415"/>
      <point x="258" y="406" type="curve"/>
      <point x="273" y="381"/>
      <point x="281" y="346"/>
      <point x="279" y="309" type="curve" smooth="yes"/>
      <point x="275" y="235"/>
      <point x="217" y="213"/>
      <point x="165" y="213" type="curve" smooth="yes"/>
    </contour>
  </outline>
</glyph>
<glyph name="grThree" format="1">
  <advance width="348"/>
  <unicode hex="0A69"/>
  <outline>
    <contour>
      <point x="269" y="-73"/>
      <point x="273" y="-73"/>
      <point x="277" y="-68" type="curve"/>
      <point x="160" y="-5" type="line"/>
      <point x="244" y="7"/>
      <point x="297" y="50"/>
      <point x="297" y="115" type="curve" smooth="yes"/>
      <point x="297" y="159"/>
      <point x="276" y="193"/>
      <point x="228" y="219" type="curve"/>
      <point x="210" y="211" type="line"/>
      <point x="253" y="185"/>
      <point x="273" y="157"/>
      <point x="273" y="115" type="curve" smooth="yes"/>
      <point x="273" y="59"/>
      <point x="234" y="22"/>
      <point x="144" y="4" type="curve"/>
      <point x="32" y="65" type="line"/>
      <point x="27" y="62"/>
      <point x="22" y="57"/>
      <point x="22" y="51" type="curve" smooth="yes"/>
      <point x="22" y="32"/>
      <point x="68" y="9"/>
      <point x="132" y="-6" type="curve"/>
      <point x="264" y="-73" type="line"/>
    </contour>
    <contour>
      <point x="234" y="192"/>
      <point x="289" y="243"/>
      <point x="289" y="309" type="curve" smooth="yes"/>
      <point x="289" y="375"/>
      <point x="238" y="424"/>
      <point x="157" y="424" type="curve" smooth="yes"/>
      <point x="123" y="424"/>
      <point x="80" y="416"/>
      <point x="54" y="409" type="curve"/>
      <point x="57" y="395" type="line"/>
      <point x="141" y="400" type="line" smooth="yes"/>
      <point x="194" y="403"/>
      <point x="220" y="398"/>
      <point x="249" y="383" type="curve"/>
      <point x="260" y="362"/>
      <point x="265" y="336"/>
      <point x="265" y="308" type="curve" smooth="yes"/>
      <point x="265" y="271"/>
      <point x="249" y="243"/>
      <point x="220" y="223" type="curve"/>
      <point x="61" y="224" type="line"/>
      <point x="59" y="220"/>
      <point x="58" y="217"/>
      <point x="58" y="214" type="curve" smooth="yes"/>
      <point x="58" y="199"/>
      <point x="82" y="192"/>
      <point x="116" y="192" type="curve" smooth="yes"/>
    </contour>
  </outline>
</glyph>
<glyph name="grSix" format="1">
  <advance width="376"/>
  <unicode hex="0A6C"/>
  <outline>
    <contour>
      <point x="245" y="-6"/>
      <point x="294" y="7"/>
      <point x="339" y="24" type="curve"/>
      <point x="334" y="38" type="line"/>
      <point x="159" y="9" type="line"/>
      <point x="115" y="27"/>
      <point x="78" y="51"/>
      <point x="78" y="105" type="curve" smooth="yes"/>
      <point x="78" y="152"/>
      <point x="111" y="189"/>
      <point x="162" y="202" type="curve"/>
      <point x="187" y="196"/>
      <point x="219" y="191"/>
      <point x="251" y="191" type="curve" smooth="yes"/>
      <point x="302" y="191"/>
      <point x="322" y="199"/>
      <point x="322" y="214" type="curve" smooth="yes"/>
      <point x="322" y="218"/>
      <point x="320" y="222"/>
      <point x="318" y="227" type="curve"/>
      <point x="162" y="214" type="line"/>
      <point x="107" y="236"/>
      <point x="86" y="268"/>
      <point x="86" y="305" type="curve" smooth="yes"/>
      <point x="86" y="356"/>
      <point x="136" y="399"/>
      <point x="219" y="411" type="curve"/>
      <point x="249" y="392"/>
      <point x="275" y="384"/>
      <point x="297" y="384" type="curve" smooth="yes"/>
      <point x="317" y="384"/>
      <point x="323" y="394"/>
      <point x="323" y="405" type="curve" smooth="yes"/>
      <point x="323" y="408"/>
      <point x="323" y="411"/>
      <point x="321" y="415" type="curve"/>
      <point x="227" y="423" type="line"/>
      <point x="212" y="443"/>
      <point x="204" y="460"/>
      <point x="204" y="482" type="curve" smooth="yes"/>
      <point x="204" y="542"/>
      <point x="244" y="558"/>
      <point x="286" y="559" type="curve"/>
      <point x="286" y="571" type="line"/>
      <point x="281" y="571"/>
      <point x="275" y="572"/>
      <point x="269" y="572" type="curve" smooth="yes"/>
      <point x="222" y="572"/>
      <point x="181" y="542"/>
      <point x="181" y="488" type="curve" smooth="yes"/>
      <point x="181" y="466"/>
      <point x="193" y="441"/>
      <point x="212" y="423" type="curve"/>
      <point x="116" y="413"/>
      <point x="62" y="360"/>
      <point x="62" y="307" type="curve" smooth="yes"/>
      <point x="62" y="272"/>
      <point x="87" y="236"/>
      <point x="144" y="208" type="curve"/>
      <point x="86" y="192"/>
      <point x="54" y="152"/>
      <point x="54" y="105" type="curve" smooth="yes"/>
      <point x="54" y="38"/>
      <point x="119" y="-6"/>
      <point x="194" y="-6" type="curve" smooth="yes"/>
    </contour>
  </outline>
</glyph>
<glyph name="grNine" format="1">
  <advance width="382"/>
  <unicode hex="0A6F"/>
  <outline>
    <contour>
      <point x="265" y="-9"/>
      <point x="315" y="12"/>
      <point x="350" y="41" type="curve"/>
      <point x="343" y="49" type="line"/>
      <point x="218" y="7" type="line"/>
      <point x="117" y="28"/>
      <point x="75" y="123"/>
      <point x="75" y="241" type="curve" smooth="yes"/>
      <point x="75" y="291"/>
      <point x="83" y="344"/>
      <point x="96" y="396" type="curve"/>
      <point x="339" y="396" type="line"/>
      <point x="341" y="410" type="line"/>
      <point x="281" y="415" type="line"/>
      <point x="247" y="434"/>
      <point x="236" y="465"/>
      <point x="236" y="486" type="curve" smooth="yes"/>
      <point x="236" y="522"/>
      <point x="258" y="548"/>
      <point x="297" y="555" type="curve"/>
      <point x="357" y="542" type="line"/>
      <point x="362" y="554" type="line"/>
      <point x="336" y="566"/>
      <point x="315" y="572"/>
      <point x="297" y="572" type="curve" smooth="yes"/>
      <point x="254" y="572"/>
      <point x="215" y="542"/>
      <point x="215" y="492" type="curve" smooth="yes"/>
      <point x="215" y="461"/>
      <point x="233" y="434"/>
      <point x="262" y="416" type="curve"/>
      <point x="262" y="415" type="line"/>
      <point x="91" y="415" type="line"/>
      <point x="44" y="463" type="line"/>
      <point x="38" y="463"/>
      <point x="32" y="460"/>
      <point x="29" y="455" type="curve"/>
      <point x="29" y="440"/>
      <point x="46" y="415"/>
      <point x="83" y="397" type="curve"/>
      <point x="65" y="341"/>
      <point x="56" y="284"/>
      <point x="56" y="230" type="curve" smooth="yes"/>
      <point x="56" y="99"/>
      <point x="114" y="-9"/>
      <point x="231" y="-9" type="curve" smooth="yes"/>
    </contour>
  </outline>
</glyph>
<glyph name="grTippi" format="1">
  <advance width="0"/>
  <unicode hex="0A70"/>
  <outline>
    <contour>
      <point x="-118" y="479" type="line"/>
      <point x="-127" y="498"/>
      <point x="-131" y="512"/>
      <point x="-131" y="530" type="curve" smooth="yes"/>
      <point x="-131" y="563"/>
      <point x="-109" y="583"/>
      <point x="-68" y="583" type="curve" smooth="yes"/>
      <point x="-48" y="583"/>
      <point x="-32" y="580"/>
      <point x="-12" y="573" type="curve"/>
      <point x="-7" y="560"/>
      <point x="-5" y="547"/>
      <point x="-5" y="530" type="curve" smooth="yes"/>
      <point x="-5" y="512"/>
      <point x="-9" y="498"/>
      <point x="-18" y="479" type="curve"/>
      <point x="-6" y="479" type="line"/>
      <point x="5" y="495"/>
      <point x="13" y="513"/>
      <point x="13" y="535" type="curve" smooth="yes"/>
      <point x="13" y="573"/>
      <point x="-15" y="605"/>
      <point x="-68" y="605" type="curve" smooth="yes"/>
      <point x="-121" y="605"/>
      <point x="-149" y="573"/>
      <point x="-149" y="535" type="curve" smooth="yes"/>
      <point x="-149" y="513"/>
      <point x="-141" y="495"/>
      <point x="-131" y="479" type="curve"/>
    </contour>
    <contour>
      <point x="-68" y="439" type="move" name="_top"/>
    </contour>
  </outline>
</glyph>
<glyph name="grIri" format="1">
  <advance width="371"/>
  <unicode hex="0A72"/>
  <outline>
    <contour>
      <point x="265" y="-4"/>
      <point x="318" y="17"/>
      <point x="347" y="56" type="curve"/>
      <point x="334" y="65" type="line"/>
      <point x="292" y="36"/>
      <point x="248" y="17"/>
      <point x="200" y="9" type="curve"/>
      <point x="130" y="42"/>
      <point x="73" y="100"/>
      <point x="73" y="162" type="curve" smooth="yes"/>
      <point x="73" y="211"/>
      <point x="103" y="236"/>
      <point x="161" y="236" type="curve" smooth="yes"/>
      <point x="326" y="236" type="line"/>
      <point x="326" y="421" type="line"/>
      <point x="400" y="421" type="line"/>
      <point x="400" y="439" type="line"/>
      <point x="-29" y="439" type="line"/>
      <point x="-29" y="421" type="line"/>
      <point x="41" y="421" type="line"/>
      <point x="46" y="339"/>
      <point x="75" y="293"/>
      <point x="123" y="253" type="curve"/>
      <point x="123" y="251" type="line"/>
      <point x="84" y="244"/>
      <point x="51" y="216"/>
      <point x="51" y="166" type="curve" smooth="yes"/>
      <point x="51" y="89"/>
      <point x="151" y="-4"/>
      <point x="215" y="-4" type="curve" smooth="yes"/>
    </contour>
    <contour>
      <point x="88" y="306"/>
      <point x="69" y="351"/>
      <point x="65" y="421" type="curve"/>
      <point x="304" y="421" type="line"/>
      <point x="304" y="254" type="line"/>
      <point x="143" y="254" type="line"/>
    </contour>
    <contour>
      <point x="315" y="439" type="move" name="top"/>
    </contour>
  </outline>
</glyph>
<glyph name="grUra" format="1">
  <advance width="452"/>
  <unicode hex="0A73"/>
  <outline>
    <contour>
      <point x="307" y="-4"/>
      <point x="390" y="57"/>
      <point x="390" y="153" type="curve" smooth="yes"/>
      <point x="390" y="202"/>
      <point x="370" y="249"/>
      <point x="328" y="290" type="curve"/>
      <point x="312" y="284" type="line"/>
      <point x="347" y="253"/>
      <point x="368" y="208"/>
      <point x="368" y="159" type="curve" smooth="yes"/>
      <point x="368" y="67"/>
      <point x="287" y="12"/>
      <point x="204" y="11" type="curve"/>
      <point x="114" y="54"/>
      <point x="67" y="180"/>
      <point x="67" y="310" type="curve" smooth="yes"/>
      <point x="67" y="467"/>
      <point x="120" y="594"/>
      <point x="260" y="594" type="curve" smooth="yes"/>
      <point x="311" y="594"/>
      <point x="352" y="574"/>
      <point x="384" y="541" type="curve"/>
      <point x="397" y="508"/>
      <point x="402" y="477"/>
      <point x="402" y="436" type="curve"/>
      <point x="423" y="436" type="line"/>
      <point x="423" y="551"/>
      <point x="349" y="612"/>
      <point x="255" y="612" type="curve" smooth="yes"/>
      <point x="102" y="612"/>
      <point x="44" y="473"/>
      <point x="44" y="318" type="curve" smooth="yes"/>
      <point x="44" y="126"/>
      <point x="145" y="-4"/>
      <point x="220" y="-4" type="curve" smooth="yes"/>
    </contour>
    <contour>
      <point x="220" y="254" type="line" smooth="yes"/>
      <point x="361" y="254"/>
      <point x="416" y="328"/>
      <point x="423" y="423" type="curve"/>
      <point x="402" y="423" type="line"/>
      <point x="394" y="334"/>
      <point x="342" y="271"/>
      <point x="220" y="271" type="curve" smooth="yes"/>
      <point x="64" y="271" type="line"/>
      <point x="64" y="253" type="line"/>
    </contour>
    <contour>
      <point x="481" y="421" type="line"/>
      <point x="481" y="439" type="line"/>
      <point x="-29" y="439" type="line"/>
      <point x="-29" y="421" type="line"/>
    </contour>
    <contour>
      <point x="236" y="0" type="move" name="bottom"/>
    </contour>
  </outline>
</glyph>
<glyph name="grYakash" format="1">
  <advance width="0"/>
  <unicode hex="0A75"/>
  <outline>
    <contour>
      <point x="25" y="-218"/>
      <point x="45" y="-212"/>
      <point x="67" y="-199" type="curve"/>
      <point x="59" y="-179" type="line"/>
      <point x="30" y="-196"/>
      <point x="-7" y="-206"/>
      <point x="-37" y="-195" type="curve"/>
      <point x="-52" y="-178"/>
      <point x="-58" y="-157"/>
      <point x="-58" y="-115" type="curve" smooth="yes"/>
      <point x="-58" y="-47" type="line"/>
      <point x="-80" y="-47" type="line"/>
      <point x="-80" y="-115" type="line" smooth="yes"/>
      <point x="-80" y="-178"/>
      <point x="-49" y="-218"/>
      <point x="2" y="-218" type="curve" smooth="yes"/>
    </contour>
    <contour>
      <point x="-69" y="0" type="move" name="_bottom"/>
    </contour>
  </outline>
</glyph>
<glyph name="figuredash" format="1">
  <advance width="378"/>
  <unicode hex="2012"/>
  <note>
	figuredash
  </note>
  <outline>
    <contour>
      <point x="331" y="186" type="line"/>
      <point x="331" y="208" type="line"/>
      <point x="47" y="208" type="line"/>
      <point x="47" y="186" type="line"/>
    </contour>
  </outline>
</glyph>
<glyph name="endash" format="1">
  <advance width="334"/>
  <unicode hex="2013"/>
  <note>
	endash
  </note>
  <outline>
    <contour>
      <point x="286" y="186" type="line"/>
      <point x="286" y="208" type="line"/>
      <point x="47" y="208" type="line"/>
      <point x="47" y="186" type="line"/>
    </contour>
  </outline>
</glyph>
<glyph name="quoteleft" format="1">
  <advance width="173"/>
  <unicode hex="2018"/>
  <note>
	quoteleft
  </note>
  <outline>
    <contour>
      <point x="104" y="313"/>
      <point x="112" y="315"/>
      <point x="118" y="317" type="curve"/>
      <point x="118" y="334" type="line"/>
      <point x="78" y="334" type="line"/>
      <point x="78" y="384"/>
      <point x="87" y="413"/>
      <point x="104" y="443" type="curve"/>
      <point x="88" y="447" type="line"/>
      <point x="67" y="419"/>
      <point x="56" y="389"/>
      <point x="56" y="355" type="curve" smooth="yes"/>
      <point x="56" y="328"/>
      <point x="69" y="313"/>
      <point x="94" y="313" type="curve" smooth="yes"/>
    </contour>
  </outline>
</glyph>
<glyph name="quotedblleft" format="1">
  <advance width="292"/>
  <unicode hex="201C"/>
  <note>
	quotedblleft
  </note>
  <outline>
    <contour>
      <point x="223" y="313"/>
      <point x="231" y="315"/>
      <point x="238" y="317" type="curve"/>
      <point x="238" y="334" type="line"/>
      <point x="197" y="334" type="line"/>
      <point x="197" y="384"/>
      <point x="207" y="413"/>
      <point x="224" y="443" type="curve"/>
      <point x="208" y="447" type="line"/>
      <point x="186" y="419"/>
      <point x="175" y="389"/>
      <point x="175" y="355" type="curve" smooth="yes"/>
      <point x="175" y="328"/>
      <point x="189" y="313"/>
      <point x="214" y="313" type="curve" smooth="yes"/>
    </contour>
    <contour>
      <point x="104" y="313"/>
      <point x="112" y="315"/>
      <point x="118" y="317" type="curve"/>
      <point x="118" y="334" type="line"/>
      <point x="78" y="334" type="line"/>
      <point x="78" y="384"/>
      <point x="87" y="413"/>
      <point x="104" y="443" type="curve"/>
      <point x="88" y="447" type="line"/>
      <point x="67" y="419"/>
      <point x="56" y="389"/>
      <point x="56" y="355" type="curve" smooth="yes"/>
      <point x="56" y="328"/>
      <point x="69" y="313"/>
      <point x="94" y="313" type="curve" smooth="yes"/>
    </contour>
  </outline>
</glyph>
<glyph name="bullet" format="1">
  <advance width="228"/>
  <unicode hex="2022"/>
  <note>
	bullet
  </note>
  <outline>
    <contour>
      <point x="145" y="144"/>
      <point x="167" y="165"/>
      <point x="167" y="196" type="curve" smooth="yes"/>
      <point x="167" y="227"/>
      <point x="145" y="248"/>
      <point x="115" y="248" type="curve" smooth="yes"/>
      <point x="84" y="248"/>
      <point x="62" y="227"/>
      <point x="62" y="196" type="curve" smooth="yes"/>
      <point x="62" y="165"/>
      <point x="83" y="144"/>
      <point x="115" y="144" type="curve" smooth="yes"/>
    </contour>
  </outline>
</glyph>
<glyph name="ellipsis" format="1">
  <advance width="429"/>
  <unicode hex="2026"/>
  <note>
	ellipsis
  </note>
  <outline>
    <contour>
      <point x="357" y="0" type="line"/>
      <point x="357" y="39" type="line"/>
      <point x="318" y="39" type="line"/>
      <point x="318" y="0" type="line"/>
    </contour>
    <contour>
      <point x="112" y="0" type="line"/>
      <point x="112" y="39" type="line"/>
      <point x="73" y="39" type="line"/>
      <point x="73" y="0" type="line"/>
    </contour>
    <contour>
      <point x="234" y="0" type="line"/>
      <point x="234" y="39" type="line"/>
      <point x="195" y="39" type="line"/>
      <point x="195" y="0" type="line"/>
    </contour>
  </outline>
</glyph>
<glyph name="guilsinglleft" format="1">
  <advance width="228"/>
  <unicode hex="2039"/>
  <note>
	guilsinglleft
  </note>
  <outline>
    <contour>
      <point x="160" y="72" type="line"/>
      <point x="73" y="189" type="line"/>
      <point x="160" y="305" type="line"/>
      <point x="145" y="311" type="line"/>
      <point x="51" y="189" type="line"/>
      <point x="145" y="66" type="line"/>
    </contour>
  </outline>
</glyph>
<glyph name="uni207E" format="1">
  <advance width="167"/>
  <unicode hex="207E"/>
  <note>
	uni207E
  </note>
  <outline>
    <contour>
      <point x="89" y="224"/>
      <point x="108" y="238"/>
      <point x="112" y="248" type="curve"/>
      <point x="112" y="510" type="line"/>
      <point x="108" y="521"/>
      <point x="89" y="534"/>
      <point x="74" y="539" type="curve"/>
      <point x="70" y="539"/>
      <point x="65" y="539"/>
      <point x="58" y="539" type="curve"/>
      <point x="58" y="519" type="line"/>
      <point x="91" y="519" type="line"/>
      <point x="91" y="239" type="line"/>
      <point x="58" y="239" type="line"/>
      <point x="58" y="220" type="line"/>
      <point x="65" y="219"/>
      <point x="70" y="219"/>
      <point x="74" y="219" type="curve"/>
    </contour>
  </outline>
</glyph>
<glyph name="uni208E" format="1">
  <advance width="167"/>
  <unicode hex="208E"/>
  <note>
	uni208E
  </note>
  <outline>
    <contour>
      <point x="89" y="-138"/>
      <point x="108" y="-125"/>
      <point x="112" y="-115" type="curve"/>
      <point x="112" y="148" type="line"/>
      <point x="108" y="158"/>
      <point x="89" y="172"/>
      <point x="74" y="177" type="curve"/>
      <point x="70" y="177"/>
      <point x="65" y="177"/>
      <point x="58" y="176" type="curve"/>
      <point x="58" y="157" type="line"/>
      <point x="91" y="157" type="line"/>
      <point x="91" y="-123" type="line"/>
      <point x="58" y="-123" type="line"/>
      <point x="58" y="-143" type="line"/>
      <point x="65" y="-144"/>
      <point x="70" y="-144"/>
      <point x="74" y="-144" type="curve"/>
    </contour>
  </outline>
</glyph>
<glyph name=".notdef" format="1">
  <advance width="437"/>
  <note>
	.notdef
  </note>
  <outline>
    <contour>
      <point x="357" y="0" type="line"/>
      <point x="357" y="518" type="line"/>
      <point x="79" y="518" type="line"/>
      <point x="79" y="0" type="line"/>
    </contour>
    <contour>
      <point x="94" y="503" type="line"/>
      <point x="342" y="503" type="line"/>
      <point x="342" y="15" type="line"/>
      <point x="94" y="15" type="line"/>
    </contour>
  </outline>
</glyph>
<glyph name="grmAI_Bindi" format="1">
  <advance width="0"/>
  <outline>
    <component base="grmAI"/>
    <component base="grBindi" xOffset="42"/>
    <contour>
      <point x="-70" y="439" type="move" name="_top"/>
    </contour>
  </outline>
</glyph>
<glyph name="grmU.alt" format="1">
  <advance width="0"/>
  <outline>
    <contour>
      <point x="-131" y="-263"/>
      <point x="-76" y="-247"/>
      <point x="-45" y="-227" type="curve"/>
      <point x="-55" y="-208" type="line"/>
      <point x="-92" y="-229"/>
      <point x="-138" y="-244"/>
      <point x="-186" y="-244" type="curve" smooth="yes"/>
      <point x="-222" y="-244"/>
      <point x="-265" y="-236"/>
      <point x="-310" y="-220" type="curve"/>
      <point x="-315" y="-232" type="line"/>
      <point x="-270" y="-252"/>
      <point x="-226" y="-263"/>
      <point x="-181" y="-263" type="curve" smooth="yes"/>
    </contour>
    <contour>
      <point x="-186" y="0" type="move" name="_bottom"/>
    </contour>
  </outline>
</glyph>
<glyph name="grmUU.alt" format="1">
  <advance width="0"/>
  <outline>
    <contour>
      <point x="-131" y="-263"/>
      <point x="-76" y="-247"/>
      <point x="-45" y="-227" type="curve"/>
      <point x="-55" y="-208" type="line"/>
      <point x="-92" y="-229"/>
      <point x="-138" y="-244"/>
      <point x="-186" y="-244" type="curve" smooth="yes"/>
      <point x="-222" y="-244"/>
      <point x="-265" y="-236"/>
      <point x="-310" y="-220" type="curve"/>
      <point x="-315" y="-232" type="line"/>
      <point x="-270" y="-252"/>
      <point x="-226" y="-263"/>
      <point x="-181" y="-263" type="curve" smooth="yes"/>
    </contour>
    <contour>
      <point x="-130" y="-357"/>
      <point x="-75" y="-341"/>
      <point x="-44" y="-320" type="curve"/>
      <point x="-54" y="-302" type="line"/>
      <point x="-91" y="-323"/>
      <point x="-136" y="-337"/>
      <point x="-184" y="-337" type="curve" smooth="yes"/>
      <point x="-220" y="-337"/>
      <point x="-263" y="-330"/>
      <point x="-309" y="-314" type="curve"/>
      <point x="-314" y="-326" type="line"/>
      <point x="-268" y="-346"/>
      <point x="-225" y="-357"/>
      <point x="-179" y="-357" type="curve" smooth="yes"/>
    </contour>
    <contour>
      <point x="-186" y="0" type="move" name="_bottom"/>
    </contour>
  </outline>
</glyph>
